<svg xmlns="http://www.w3.org/2000/svg" viewBox="0 0 75.72 69.89" style="fill:gray">
  <path d="M56.32,44.63,77.94,63.37A4.74,4.74,0,0,1,78.41,70l-.77.89A4.74,4.74,0,0,1,71,71.4L49.52,52.8"
    transform="translate(-3.84 -2.66)" />
  <path
    d="M3.84,30.79A28.13,28.13,0,1,1,32,58.92,28.12,28.12,0,0,1,3.84,30.79ZM32.33,51.34A20.56,20.56,0,1,0,11.77,30.78,20.55,20.55,0,0,0,32.33,51.34Z"
    transform="translate(-3.84 -2.66)" />
  <path
    d="M38.68,13.81a18.26,18.26,0,1,0,10.26,23.7A18.24,18.24,0,0,0,38.68,13.81ZM17.06,32.91a15.17,15.17,0,0,1,5.48-13.86Zm3.68,7.94a14.81,14.81,0,0,1-2.6-4.1l3.65,1.44Zm19.94-6.61L36.4,45.07l-8.6-3.4L30.43,35A.8.8,0,0,0,30,34l-5-2a1.81,1.81,0,0,0-3.5-.51,1.84,1.84,0,0,0,1,2.37,1.74,1.74,0,0,0,1.88-.36l4.31,1.71-2.62,6.64a.79.79,0,0,0,.45,1l7.22,2.86a14.92,14.92,0,0,1-7.3-1A15.19,15.19,0,0,1,22,42.06L23.6,38a.8.8,0,0,0-.46-1l-5.14-2,6.89-17.44a13,13,0,0,1,2.53-1.06l-4.3,10.87a.82.82,0,0,0,.45,1.05L35.36,33l-1.57,4a2.37,2.37,0,0,0-2.33,1.53,2.41,2.41,0,1,0,4.48,1.77,2.37,2.37,0,0,0-.66-2.7l1.87-4.74a.79.79,0,0,0-.45-1L24.91,27.14,29.33,16a10.92,10.92,0,0,1,1.31-.15l12.58,5A16.13,16.13,0,0,1,46,25.24L34.76,20.81a1.81,1.81,0,0,0-3.49-.52,1.81,1.81,0,0,0,1,2.38,1.73,1.73,0,0,0,1.87-.37l12.41,4.91A15.19,15.19,0,0,1,47,30.64L30.6,24.16a.79.79,0,0,0-1,.45.8.8,0,0,0,.45,1L47,32.35a13.32,13.32,0,0,1-.7,3.23l-4.53-1.79A.79.79,0,0,0,40.68,34.24Zm-2.3,10.18,3.5-8.84,3.78,1.49A15.21,15.21,0,0,1,38.38,44.42Z"
    transform="translate(-3.84 -2.66)" style="fill:dodgerblue" />
</svg>